<svg width="400" height="524" viewBox="0 0 400 524" version="1.1" xmlns="http://www.w3.org/2000/svg" xmlns:xlink="http://www.w3.org/1999/xlink">
<title>&#208;&#154;&#208;&#176;&#209;&#128;&#209;&#130;&#208;&#190;&#209;&#135;&#208;&#186;&#208;&#176;</title>
<desc>Created using Figma</desc>
<g id="Canvas" transform="translate(-7 -347)">
<g id="&#208;&#154;&#208;&#176;&#209;&#128;&#209;&#130;&#208;&#190;&#209;&#135;&#208;&#186;&#208;&#176;">
<g id="Rectangle">
<use xlink:href="#path0_fill" transform="translate(17 361)" fill="#FFFFFF"/>
<mask id="mask0_outline_ins">
<use xlink:href="#path0_fill" fill="white" transform="translate(17 361)"/>
</mask>
<g mask="url(#mask0_outline_ins)">
<use xlink:href="#path1_stroke_2x" transform="translate(17 361)" fill="#000000" fill-opacity="0.15"/>
</g>
</g>
<g id="Rectangle">
<use xlink:href="#path2_fill" transform="translate(12 354)" fill="#FFFFFF"/>
<mask id="mask1_outline_ins">
<use xlink:href="#path2_fill" fill="white" transform="translate(12 354)"/>
</mask>
<g mask="url(#mask1_outline_ins)">
<use xlink:href="#path3_stroke_2x" transform="translate(12 354)" fill="#000000" fill-opacity="0.15"/>
</g>
</g>
<g id="&#208;&#144;&#208;&#187;&#208;&#181;&#208;&#186;&#209;&#129;&#208;&#176;&#208;&#189;&#208;&#180;&#209;&#128;">
<g id="Rectangle">
<use xlink:href="#path4_fill" transform="translate(7 347)" fill="#FFFFFF"/>
<mask id="mask2_outline_ins">
<use xlink:href="#path4_fill" fill="white" transform="translate(7 347)"/>
</mask>
<g mask="url(#mask2_outline_ins)">
<use xlink:href="#path5_stroke_2x" transform="translate(7 347)" fill="#000000" fill-opacity="0.15"/>
</g>
</g>
<g id="Group">
<mask id="mask3_alpha" mask-type="alpha">
<g id="Rectangle 2">
<use xlink:href="#path6_fill" transform="translate(7 347)" fill="#C4C4C4"/>
</g>
</mask>
<g id="photo" mask="url(#mask3_alpha)">
<use xlink:href="#path7_fill" transform="translate(-142 329)" fill="#C52463"/>
</g>
</g>
<g id="&#208;&#157;&#208;&#184;&#208;&#186;&#209;&#130;&#208;&#190; &#208;&#189;&#208;&#181; &#208;&#189;&#208;&#176;&#208;&#185;&#208;&#180;&#208;&#181;&#208;&#189;">
<use xlink:href="#path8_fill" transform="translate(111 782)"/>
</g>
</g>
<g id="Vector">
<use xlink:href="#path9_fill" transform="translate(116 441)" fill="#FFFFFF"/>
</g>
</g>
</g>
<defs>
<path id="path0_fill" d="M 0 12C 0 5.37258 5.37258 0 12 0L 368 0C 374.627 0 380 5.37258 380 12L 380 498C 380 504.627 374.627 510 368 510L 12 510C 5.37258 510 0 504.627 0 498L 0 12Z"/>
<path id="path1_stroke_2x" d="M 12 1L 368 1L 368 -1L 12 -1L 12 1ZM 379 12L 379 498L 381 498L 381 12L 379 12ZM 368 509L 12 509L 12 511L 368 511L 368 509ZM 1 498L 1 12L -1 12L -1 498L 1 498ZM 12 -1C 4.8203 -1 -1 4.8203 -1 12L 1 12C 1 5.92487 5.92487 1 12 1L 12 -1ZM 368 1C 374.075 1 379 5.92487 379 12L 381 12C 381 4.8203 375.18 -1 368 -1L 368 1ZM 379 498C 379 504.075 374.075 509 368 509L 368 511C 375.18 511 381 505.18 381 498L 379 498ZM 12 509C 5.92487 509 1 504.075 1 498L -1 498C -1 505.18 4.8203 511 12 511L 12 509Z"/>
<path id="path2_fill" d="M 0 12C 0 5.37258 5.37258 0 12 0L 378 0C 384.627 0 390 5.37258 390 12L 390 498C 390 504.627 384.627 510 378 510L 12 510C 5.37258 510 0 504.627 0 498L 0 12Z"/>
<path id="path3_stroke_2x" d="M 12 1L 378 1L 378 -1L 12 -1L 12 1ZM 389 12L 389 498L 391 498L 391 12L 389 12ZM 378 509L 12 509L 12 511L 378 511L 378 509ZM 1 498L 1 12L -1 12L -1 498L 1 498ZM 12 -1C 4.8203 -1 -1 4.8203 -1 12L 1 12C 1 5.92487 5.92487 1 12 1L 12 -1ZM 378 1C 384.075 1 389 5.92487 389 12L 391 12C 391 4.8203 385.18 -1 378 -1L 378 1ZM 389 498C 389 504.075 384.075 509 378 509L 378 511C 385.18 511 391 505.18 391 498L 389 498ZM 12 509C 5.92487 509 1 504.075 1 498L -1 498C -1 505.18 4.8203 511 12 511L 12 509Z"/>
<path id="path4_fill" d="M 0 12C 0 5.37258 5.37258 0 12 0L 388 0C 394.627 0 400 5.37258 400 12L 400 498C 400 504.627 394.627 510 388 510L 12 510C 5.37258 510 0 504.627 0 498L 0 12Z"/>
<path id="path5_stroke_2x" d="M 12 1L 388 1L 388 -1L 12 -1L 12 1ZM 399 12L 399 498L 401 498L 401 12L 399 12ZM 388 509L 12 509L 12 511L 388 511L 388 509ZM 1 498L 1 12L -1 12L -1 498L 1 498ZM 12 -1C 4.8203 -1 -1 4.8203 -1 12L 1 12C 1 5.92487 5.92487 1 12 1L 12 -1ZM 388 1C 394.075 1 399 5.92487 399 12L 401 12C 401 4.8203 395.18 -1 388 -1L 388 1ZM 399 498C 399 504.075 394.075 509 388 509L 388 511C 395.18 511 401 505.18 401 498L 399 498ZM 12 509C 5.92487 509 1 504.075 1 498L -1 498C -1 505.18 4.8203 511 12 511L 12 509Z"/>
<path id="path6_fill" d="M 0 12C 0 5.37258 5.37258 0 12 0L 388 0C 394.627 0 400 5.37258 400 12L 400 400L 0 400L 0 12Z"/>
<path id="path7_fill" d="M 0 0L 564 0L 564 435L 0 435L 0 0Z"/>
<path id="path8_fill" d="M 15.2812 22L 12.3281 22L 12.3281 14.418L 4.69922 14.418L 4.69922 22L 1.73438 22L 1.73438 4.9375L 4.69922 4.9375L 4.69922 12.0391L 12.3281 12.0391L 12.3281 4.9375L 15.2812 4.9375L 15.2812 22ZM 26.4375 9.32031L 29.2734 9.32031L 29.2734 22L 26.4375 22L 26.4375 13.5391L 21.4688 22L 18.6328 22L 18.6328 9.32031L 21.4688 9.32031L 21.4688 17.7812L 26.4375 9.32031ZM 36.8086 16.9844L 35.3672 16.9844L 35.3672 22L 32.5195 22L 32.5195 9.32031L 35.3672 9.32031L 35.3672 14.3828L 36.6211 14.3828L 40.125 9.32031L 43.6406 9.32031L 39.0586 15.3906L 44.0273 22L 40.3242 22L 36.8086 16.9844ZM 55.5703 11.582L 51.457 11.582L 51.457 22L 48.6094 22L 48.6094 11.582L 44.543 11.582L 44.543 9.32031L 55.5703 9.32031L 55.5703 11.582ZM 56.5898 15.543C 56.5898 14.3008 56.8359 13.1836 57.3281 12.1914C 57.8203 11.1914 58.5117 10.4258 59.4023 9.89453C 60.293 9.35547 61.3164 9.08594 62.4727 9.08594C 64.1836 9.08594 65.5703 9.63672 66.6328 10.7383C 67.7031 11.8398 68.2812 13.3008 68.3672 15.1211L 68.3789 15.7891C 68.3789 17.0391 68.1367 18.1562 67.6523 19.1406C 67.1758 20.125 66.4883 20.8867 65.5898 21.4258C 64.6992 21.9648 63.668 22.2344 62.4961 22.2344C 60.707 22.2344 59.2734 21.6406 58.1953 20.4531C 57.125 19.2578 56.5898 17.668 56.5898 15.6836L 56.5898 15.543ZM 59.4375 15.7891C 59.4375 17.0938 59.707 18.1172 60.2461 18.8594C 60.7852 19.5938 61.5352 19.9609 62.4961 19.9609C 63.457 19.9609 64.2031 19.5859 64.7344 18.8359C 65.2734 18.0859 65.543 16.9883 65.543 15.543C 65.543 14.2617 65.2656 13.2461 64.7109 12.4961C 64.1641 11.7461 63.418 11.3711 62.4727 11.3711C 61.543 11.3711 60.8047 11.7422 60.2578 12.4844C 59.7109 13.2188 59.4375 14.3203 59.4375 15.7891ZM 87.5039 22L 84.6562 22L 84.6562 16.8789L 79.7227 16.8789L 79.7227 22L 76.875 22L 76.875 9.32031L 79.7227 9.32031L 79.7227 14.6055L 84.6562 14.6055L 84.6562 9.32031L 87.5039 9.32031L 87.5039 22ZM 96.1289 22.2344C 94.3242 22.2344 92.8594 21.668 91.7344 20.5352C 90.6172 19.3945 90.0586 17.8789 90.0586 15.9883L 90.0586 15.6367C 90.0586 14.3711 90.3008 13.2422 90.7852 12.25C 91.2773 11.25 91.9648 10.4727 92.8477 9.91797C 93.7305 9.36328 94.7148 9.08594 95.8008 9.08594C 97.5273 9.08594 98.8594 9.63672 99.7969 10.7383C 100.742 11.8398 101.215 13.3984 101.215 15.4141L 101.215 16.5625L 92.9297 16.5625C 93.0156 17.6094 93.3633 18.4375 93.9727 19.0469C 94.5898 19.6562 95.3633 19.9609 96.293 19.9609C 97.5977 19.9609 98.6602 19.4336 99.4805 18.3789L 101.016 19.8438C 100.508 20.6016 99.8281 21.1914 98.9766 21.6133C 98.1328 22.0273 97.1836 22.2344 96.1289 22.2344ZM 95.7891 11.3711C 95.0078 11.3711 94.375 11.6445 93.8906 12.1914C 93.4141 12.7383 93.1094 13.5 92.9766 14.4766L 98.4023 14.4766L 98.4023 14.2656C 98.3398 13.3125 98.0859 12.5938 97.6406 12.1094C 97.1953 11.6172 96.5781 11.3711 95.7891 11.3711ZM 120.152 22L 117.305 22L 117.305 16.8789L 112.371 16.8789L 112.371 22L 109.523 22L 109.523 9.32031L 112.371 9.32031L 112.371 14.6055L 117.305 14.6055L 117.305 9.32031L 120.152 9.32031L 120.152 22ZM 130.77 22C 130.645 21.7578 130.535 21.3633 130.441 20.8164C 129.535 21.7617 128.426 22.2344 127.113 22.2344C 125.84 22.2344 124.801 21.8711 123.996 21.1445C 123.191 20.418 122.789 19.5195 122.789 18.4492C 122.789 17.0977 123.289 16.0625 124.289 15.3438C 125.297 14.6172 126.734 14.2539 128.602 14.2539L 130.348 14.2539L 130.348 13.4219C 130.348 12.7656 130.164 12.2422 129.797 11.8516C 129.43 11.4531 128.871 11.2539 128.121 11.2539C 127.473 11.2539 126.941 11.418 126.527 11.7461C 126.113 12.0664 125.906 12.4766 125.906 12.9766L 123.059 12.9766C 123.059 12.2812 123.289 11.6328 123.75 11.0312C 124.211 10.4219 124.836 9.94531 125.625 9.60156C 126.422 9.25781 127.309 9.08594 128.285 9.08594C 129.77 9.08594 130.953 9.46094 131.836 10.2109C 132.719 10.9531 133.172 12 133.195 13.3516L 133.195 19.0703C 133.195 20.2109 133.355 21.1211 133.676 21.8008L 133.676 22L 130.77 22ZM 127.641 19.9492C 128.203 19.9492 128.73 19.8125 129.223 19.5391C 129.723 19.2656 130.098 18.8984 130.348 18.4375L 130.348 16.0469L 128.812 16.0469C 127.758 16.0469 126.965 16.2305 126.434 16.5977C 125.902 16.9648 125.637 17.4844 125.637 18.1562C 125.637 18.7031 125.816 19.1406 126.176 19.4688C 126.543 19.7891 127.031 19.9492 127.641 19.9492ZM 144.094 9.32031L 146.93 9.32031L 146.93 22L 144.094 22L 144.094 13.5391L 139.125 22L 136.289 22L 136.289 9.32031L 139.125 9.32031L 139.125 17.7812L 144.094 9.32031ZM 145.43 4.45703C 145.43 5.44141 145.086 6.23828 144.398 6.84766C 143.711 7.45703 142.793 7.76172 141.645 7.76172C 140.496 7.76172 139.578 7.45703 138.891 6.84766C 138.203 6.23828 137.859 5.44141 137.859 4.45703L 139.992 4.45703C 139.992 4.97266 140.137 5.375 140.426 5.66406C 140.723 5.94531 141.129 6.08594 141.645 6.08594C 142.16 6.08594 142.562 5.94531 142.852 5.66406C 143.141 5.375 143.285 4.97266 143.285 4.45703L 145.43 4.45703ZM 150.012 19.7266C 150.801 18.8438 151.328 18.0078 151.594 17.2188C 151.867 16.4219 152.031 15.4062 152.086 14.1719L 152.25 9.32031L 161.051 9.32031L 161.051 19.7266L 162.809 19.7266L 162.809 25.7734L 159.973 25.7734L 159.973 22L 151.84 22L 151.84 25.7734L 148.957 25.7734L 148.969 19.7266L 150.012 19.7266ZM 153.352 19.7266L 158.215 19.7266L 158.215 11.7695L 155.016 11.7695L 154.934 14.1953C 154.824 16.5234 154.297 18.3672 153.352 19.7266ZM 170.426 22.2344C 168.621 22.2344 167.156 21.668 166.031 20.5352C 164.914 19.3945 164.355 17.8789 164.355 15.9883L 164.355 15.6367C 164.355 14.3711 164.598 13.2422 165.082 12.25C 165.574 11.25 166.262 10.4727 167.145 9.91797C 168.027 9.36328 169.012 9.08594 170.098 9.08594C 171.824 9.08594 173.156 9.63672 174.094 10.7383C 175.039 11.8398 175.512 13.3984 175.512 15.4141L 175.512 16.5625L 167.227 16.5625C 167.312 17.6094 167.66 18.4375 168.27 19.0469C 168.887 19.6562 169.66 19.9609 170.59 19.9609C 171.895 19.9609 172.957 19.4336 173.777 18.3789L 175.312 19.8438C 174.805 20.6016 174.125 21.1914 173.273 21.6133C 172.43 22.0273 171.48 22.2344 170.426 22.2344ZM 170.086 11.3711C 169.305 11.3711 168.672 11.6445 168.188 12.1914C 167.711 12.7383 167.406 13.5 167.273 14.4766L 172.699 14.4766L 172.699 14.2656C 172.637 13.3125 172.383 12.5938 171.938 12.1094C 171.492 11.6172 170.875 11.3711 170.086 11.3711ZM 188.473 22L 185.625 22L 185.625 16.8789L 180.691 16.8789L 180.691 22L 177.844 22L 177.844 9.32031L 180.691 9.32031L 180.691 14.6055L 185.625 14.6055L 185.625 9.32031L 188.473 9.32031L 188.473 22Z"/>
<path id="path9_fill" d="M 90.494 211.08C 52.984 211.08 22.467 180.563 22.467 143.053L 22.467 142.065L 20.979 142.065C 9.411 142.065 2.36511e-07 132.654 2.36511e-07 121.086L 2.36511e-07 111.48C 2.36511e-07 99.9116 9.411 90.5006 20.979 90.5006L 22.467 90.5006L 22.467 59.5826C 22.467 47.7296 27.953 36.4626 37.22 29.1176C 36.887 27.5116 36.714 25.8556 36.714 24.1746C 36.714 19.8556 39.014 15.4186 42.867 12.3066C 42.906 12.2756 42.945 12.2456 42.985 12.2166L 45.319 10.5506C 45.402 10.4916 45.488 10.4376 45.577 10.3886C 45.94 10.1906 46.351 9.9436 46.822 9.6606C 49.021 8.3416 52.344 6.3476 57.84 4.6706C 65.418 2.1856 73.417 0.729601 82.256 0.233601C 116.19 -1.6734 146.36 8.2496 155.626 24.3586C 155.633 24.3706 155.64 24.3816 155.646 24.3946C 156.571 26.0126 157.527 27.6866 158.416 29.5986C 166.034 45.9846 159.838 63.1836 158.522 66.4596L 158.522 90.5006L 160.146 90.5006C 171.714 90.5006 181.125 99.9116 181.125 111.48L 181.125 121.086C 181.125 132.654 171.714 142.065 160.146 142.065L 158.522 142.065L 158.522 143.053C 158.522 180.563 128.005 211.08 90.494 211.08ZM 27.467 139.565L 27.467 143.053C 27.467 177.806 55.741 206.08 90.494 206.08C 125.248 206.08 153.522 177.806 153.522 143.053L 153.522 121.862L 149.093 121.862C 148.425 121.862 147.785 121.595 147.315 121.12C 146.845 120.645 146.586 120.002 146.593 119.334C 146.596 119.044 146.896 90.2526 144.668 81.3376C 142.628 73.1786 136.734 69.9716 136.674 69.9396C 136.07 69.6196 135.623 69.0656 135.439 68.4066C 135.254 67.7486 135.347 67.0426 135.696 66.4546C 135.729 66.3996 139.127 60.5786 139.277 54.9966C 139.3 54.1266 135.714 52.0076 130.971 50.6576C 125.556 49.4996 121.393 49.5626 121.29 49.5626C 121.271 49.5626 121.248 49.5636 121.229 49.5636L 69.229 49.5636C 61.708 49.5636 55.21 48.2716 49.916 45.7216C 49.03 45.2956 48.178 44.8136 47.362 44.2826C 45.027 46.9826 41.705 51.5866 41.714 55.0576C 41.728 60.5826 45.237 66.3616 45.273 66.4186C 45.634 67.0066 45.737 67.7206 45.556 68.3866C 45.375 69.0526 44.926 69.6156 44.316 69.9386C 44.085 70.0646 38.336 73.2806 36.322 81.3366C 34.093 90.2516 34.393 119.043 34.397 119.333C 34.404 120.001 34.145 120.644 33.675 121.119C 33.205 121.594 32.565 121.861 31.897 121.861L 27.468 121.861L 27.468 139.565L 27.467 139.565ZM 158.658 137.065L 160.146 137.065C 168.957 137.065 176.125 129.897 176.125 121.086L 176.125 111.48C 176.125 102.669 168.957 95.5006 160.146 95.5006L 158.658 95.5006L 158.658 137.065ZM 20.979 95.4996C 12.168 95.4996 5 102.668 5 111.479L 5 121.085C 5 129.896 12.168 137.064 20.979 137.064L 22.467 137.064L 22.467 95.4996L 20.979 95.4996ZM 151.609 116.862L 153.522 116.862L 153.522 66.5956C 151.349 61.8556 147.985 58.4346 144.234 55.9646C 143.932 60.3316 142.243 64.5126 141.088 66.9196C 143.613 68.8926 147.751 73.0566 149.518 80.1236C 151.517 88.1206 151.632 109.463 151.609 116.862ZM 27.467 116.862L 29.38 116.862C 29.357 109.464 29.472 88.1206 31.471 80.1246C 33.232 73.0816 37.347 68.9206 39.875 66.9396C 38.603 64.3626 36.725 59.7686 36.713 55.0706C 36.7 49.7636 40.932 44.0656 43.491 41.1076C 41.567 39.1436 39.991 36.8346 38.843 34.2816C 31.666 40.6726 27.466 49.9046 27.466 59.5826L 27.466 116.862L 27.467 116.862ZM 121.675 44.4806C 125.067 44.4806 145.238 45.1196 155.418 59.7926C 155.773 58.4446 156.128 56.8776 156.42 55.1466C 153.487 52.2896 142.891 42.9356 127.123 39.9376C 116.1 37.8426 103.081 38.6536 90.49 39.4386C 81.129 40.0216 71.45 40.6266 62.874 39.9746C 54.56 39.3436 48.797 37.1736 44.855 34.7476C 46.663 37.5056 49.178 39.7646 52.199 41.1996C 56.791 43.3816 62.518 44.4876 69.22 44.4876L 121.22 44.4876C 121.283 44.4836 121.438 44.4806 121.675 44.4806ZM 110.381 33.6026C 116.506 33.6026 122.476 33.9636 128.056 35.0246C 141.912 37.6586 151.937 44.6296 157.071 48.9746C 157.16 46.7726 157.096 44.4466 156.799 42.0596C 149.83 35.0836 137.469 30.2186 120.975 27.9706C 112.24 26.7816 102.28 28.1346 91.736 29.5696C 81.111 31.0146 70.124 32.5116 60.236 31.2096C 49.27 29.7666 44.244 25.8176 41.954 22.2766C 41.796 22.9146 41.713 23.5516 41.713 24.1756C 41.713 24.4106 41.717 24.6456 41.726 24.8786C 42.537 26.4496 47.154 33.7656 63.252 34.9886C 71.482 35.6126 80.563 35.0486 90.178 34.4476C 96.894 34.0286 103.729 33.6026 110.381 33.6026ZM 113.744 22.5226C 116.456 22.5226 119.102 22.6686 121.65 23.0156C 135.623 24.9196 146.92 28.6936 154.864 34.0566C 154.571 33.2696 154.245 32.4866 153.882 31.7056C 153.078 29.9766 152.212 28.4606 151.295 26.8556C 151.29 26.8476 151.285 26.8386 151.281 26.8306C 143.036 12.5386 114.131 3.4536 82.537 5.2256C 74.139 5.6966 66.558 7.0736 59.36 9.4336C 59.319 9.4466 59.273 9.4606 59.232 9.4726C 54.392 10.9506 51.385 12.7546 49.396 13.9486C 48.915 14.2366 48.489 14.4916 48.106 14.7046L 45.953 16.2406C 45.661 16.4796 45.38 16.7296 45.113 16.9906C 45.427 18.9606 47.512 24.4916 60.888 26.2516C 70.111 27.4646 80.761 26.0156 91.061 24.6146C 98.655 23.5816 106.438 22.5226 113.744 22.5226ZM 108.688 169.117C 108.048 169.117 107.408 168.873 106.92 168.385C 102.517 163.982 96.664 161.558 90.438 161.558C 84.212 161.558 78.358 163.982 73.956 168.385C 72.98 169.362 71.396 169.362 70.421 168.385C 69.444 167.409 69.444 165.826 70.421 164.85C 75.768 159.503 82.877 156.558 90.439 156.558C 98.001 156.558 105.11 159.503 110.457 164.85C 111.434 165.826 111.434 167.409 110.457 168.385C 109.967 168.873 109.327 169.117 108.688 169.117ZM 114.857 124.202C 106.459 124.202 99.626 117.369 99.626 108.971C 99.626 100.573 106.459 93.7396 114.857 93.7396C 123.256 93.7396 130.089 100.573 130.089 108.971C 130.089 117.369 123.256 124.202 114.857 124.202ZM 114.857 98.7396C 109.215 98.7396 104.626 103.33 104.626 108.971C 104.626 114.612 109.216 119.202 114.857 119.202C 120.499 119.202 125.089 114.612 125.089 108.971C 125.089 103.33 120.499 98.7396 114.857 98.7396ZM 66.14 124.202C 57.742 124.202 50.909 117.369 50.909 108.971C 50.909 100.573 57.742 93.7396 66.14 93.7396C 74.538 93.7396 81.371 100.573 81.371 108.971C 81.371 117.369 74.538 124.202 66.14 124.202ZM 66.14 98.7396C 60.498 98.7396 55.909 103.33 55.909 108.971C 55.909 114.612 60.499 119.202 66.14 119.202C 71.781 119.202 76.371 114.612 76.371 108.971C 76.371 103.33 71.781 98.7396 66.14 98.7396ZM 114.857 111.721C 113.476 111.721 112.357 110.602 112.357 109.221L 112.357 108.971C 112.357 107.59 113.476 106.471 114.857 106.471C 116.238 106.471 117.357 107.59 117.357 108.971L 117.357 109.221C 117.357 110.602 116.238 111.721 114.857 111.721ZM 66.14 111.721C 64.759 111.721 63.64 110.602 63.64 109.221L 63.64 108.971C 63.64 107.59 64.759 106.471 66.14 106.471C 67.521 106.471 68.64 107.59 68.64 108.971L 68.64 109.221C 68.64 110.602 67.521 111.721 66.14 111.721ZM 59.558 85.7946C 58.822 85.7946 58.093 85.4716 57.6 84.8496C 56.741 83.7686 56.921 82.1966 58.002 81.3376L 71.168 70.8756C 72.248 70.0166 73.821 70.1966 74.681 71.2776C 75.54 72.3586 75.36 73.9306 74.279 74.7896L 61.112 85.2516C 60.653 85.6176 60.103 85.7946 59.558 85.7946ZM 121.439 85.7736C 120.894 85.7736 120.345 85.5966 119.885 85.2316L 106.718 74.7696C 105.637 73.9106 105.457 72.3376 106.316 71.2566C 107.175 70.1746 108.748 69.9956 109.829 70.8546L 122.996 81.3166C 124.077 82.1756 124.257 83.7486 123.398 84.8296C 122.904 85.4496 122.175 85.7736 121.439 85.7736Z"/>
</defs>
</svg>
