<svg width="132" height="132" viewBox="0 0 132 132" version="1.1" xmlns="http://www.w3.org/2000/svg" xmlns:xlink="http://www.w3.org/1999/xlink">
<title>not like</title>
<desc>Created using Figma</desc>
<g id="Canvas" transform="translate(-1547 -500)">
<g id="not like">
<g id="Ellipse">
<use xlink:href="#path0_fill" transform="translate(1547 500)" fill="#FFFFFF"/>
<mask id="mask0_outline_ins">
<use xlink:href="#path0_fill" fill="white" transform="translate(1547 500)"/>
</mask>
<g mask="url(#mask0_outline_ins)">
<use xlink:href="#path1_stroke_2x" transform="translate(1547 500)" fill="#C52463" fill-opacity="0.25"/>
</g>
</g>
<g id="like">
<g id="Group">
<g id="Vector">
<use xlink:href="#path2_fill" transform="matrix(-1 8.74228e-08 8.74228e-08 1 1642.21 536)" fill="#32BF00"/>
</g>
</g>
</g>
</g>
</g>
<defs>
<path id="path0_fill" d="M 132 66C 132 102.451 102.451 132 66 132C 29.5492 132 0 102.451 0 66C 0 29.5492 29.5492 0 66 0C 102.451 0 132 29.5492 132 66Z"/>
<path id="path1_stroke_2x" d="M 129 66C 129 100.794 100.794 129 66 129L 66 135C 104.108 135 135 104.108 135 66L 129 66ZM 66 129C 31.2061 129 3 100.794 3 66L -3 66C -3 104.108 27.8924 135 66 135L 66 129ZM 3 66C 3 31.2061 31.2061 3 66 3L 66 -3C 27.8924 -3 -3 27.8924 -3 66L 3 66ZM 66 3C 100.794 3 129 31.2061 129 66L 135 66C 135 27.8924 104.108 -3 66 -3L 66 3Z"/>
<path id="path2_fill" d="M 56.462 40.7905C 57.6892 39.2221 58.2777 37.5408 58.2026 35.8093C 58.1274 33.9021 57.2759 32.409 56.5747 31.4931C 57.3886 29.4605 57.7017 26.261 54.9844 23.7767C 52.9934 21.9573 49.6124 21.1418 44.9292 21.3676C 41.6359 21.5182 38.881 22.133 38.7683 22.1581L 38.7558 22.1581C 38.1297 22.271 37.466 22.409 36.7898 22.5596C 36.7397 21.7566 36.8775 19.7616 38.3551 15.2698C 40.1082 9.92472 40.008 5.83438 38.0295 3.09912C 35.9509 0.225847 32.6325 0 31.6558 0C 30.7166 0 29.8526 0.388959 29.239 1.10414C 27.8491 2.72271 28.0119 5.70891 28.1872 7.08908C 26.5343 11.5307 21.9011 22.4216 17.9817 25.4454C 17.9066 25.4956 17.8439 25.5583 17.7813 25.6211C 16.6293 26.8381 15.8529 28.1556 15.327 29.3099C 14.5882 28.9084 13.7492 28.6826 12.8476 28.6826L 5.20918 28.6826C 2.3291 28.6826 2.3884e-08 31.0289 2.3884e-08 33.9021L 2.3884e-08 54.2911C 2.3884e-08 57.1769 2.34163 59.5107 5.20918 59.5107L 12.8476 59.5107C 13.9621 59.5107 15.0014 59.1593 15.8529 58.5571L 18.7956 58.9084C 19.2464 58.9711 27.2605 59.9874 35.4875 59.8243C 36.9777 59.9373 38.3801 60 39.6824 60C 41.9239 60 43.8773 59.8243 45.5052 59.473C 49.3369 58.6575 51.9541 57.0263 53.2814 54.6299C 54.2957 52.798 54.2957 50.9787 54.1329 49.8243C 56.6248 47.5659 57.0631 45.069 56.9754 43.3124C 56.9253 42.2961 56.6999 41.4304 56.462 40.7905ZM 5.20918 56.123C 4.19489 56.123 3.38096 55.2949 3.38096 54.2911L 3.38096 33.8896C 3.38096 32.8733 4.20741 32.0577 5.20918 32.0577L 12.8476 32.0577C 13.8619 32.0577 14.6759 32.8858 14.6759 33.8896L 14.6759 54.2785C 14.6759 55.2949 13.8494 56.1104 12.8476 56.1104L 5.20918 56.1104L 5.20918 56.123ZM 53.2564 39.3225C 52.7304 39.8745 52.6302 40.7152 53.031 41.3676C 53.031 41.3802 53.5444 42.2585 53.607 43.463C 53.6946 45.1066 52.9057 46.5621 51.2528 47.8043C 50.6643 48.256 50.4264 49.0339 50.6768 49.7365C 50.6768 49.7491 51.2153 51.4053 50.3387 52.9736C 49.4997 54.4793 47.6339 55.5583 44.804 56.1606C 42.5375 56.6499 39.457 56.7378 35.6754 56.4366C 35.6253 56.4366 35.5627 56.4366 35.5001 56.4366C 27.4484 56.6123 19.309 55.5583 19.2214 55.5458L 19.2089 55.5458L 17.9441 55.3952C 18.0193 55.0439 18.0568 54.6675 18.0568 54.2911L 18.0568 33.8896C 18.0568 33.3501 17.9692 32.8231 17.8189 32.3338C 18.0443 31.4931 18.6704 29.6236 20.148 28.0301C 25.7704 23.5634 31.2676 8.49435 31.5055 7.84191C 31.6057 7.57842 31.6307 7.28984 31.5807 7.00125C 31.3678 5.59598 31.4429 3.87704 31.7434 3.36261C 32.4071 3.37516 34.1978 3.56336 35.2747 5.05646C 36.5519 6.8256 36.5018 9.98745 35.1244 14.1782C 33.0207 20.5646 32.8454 23.9272 34.5108 25.4078C 35.3373 26.1481 36.4392 26.1857 37.2406 25.8971C 38.0045 25.7215 38.7308 25.5709 39.4195 25.458C 39.4696 25.4454 39.5322 25.4329 39.5823 25.4203C 43.4265 24.5797 50.3137 24.0652 52.7054 26.2484C 54.734 28.1054 53.2939 30.5646 53.1311 30.8281C 52.6678 31.5307 52.8056 32.4467 53.4317 33.0113C 53.4442 33.0238 54.759 34.266 54.8216 35.9348C 54.8717 37.0514 54.3458 38.1932 53.2564 39.3225Z"/>
</defs>
</svg>
