<svg width="303" height="60" viewBox="0 0 303 60" version="1.1" xmlns="http://www.w3.org/2000/svg" xmlns:xlink="http://www.w3.org/1999/xlink">
<title>Vector</title>
<desc>Created using Figma</desc>
<g id="Canvas" transform="translate(-4593 -1415)">
<g id="Vector">
<use xlink:href="#path0_fill" transform="translate(4593 1415)" fill="#C52463"/>
<use xlink:href="#path1_fill" transform="translate(4593 1415)" fill="#C52463"/>
<use xlink:href="#path2_fill" transform="translate(4593 1415)" fill="#C52463"/>
<use xlink:href="#path3_fill" transform="translate(4593 1415)" fill="#C52463"/>
<use xlink:href="#path4_fill" transform="translate(4593 1415)" fill="#C52463"/>
<use xlink:href="#path5_fill" transform="translate(4593 1415)" fill="#C52463"/>
<use xlink:href="#path6_fill" transform="translate(4593 1415)" fill="#C52463"/>
<use xlink:href="#path7_fill" transform="translate(4593 1415)" fill="#C52463"/>
<use xlink:href="#path8_fill" transform="translate(4593 1415)" fill="#C52463"/>
<use xlink:href="#path9_fill" transform="translate(4593 1415)" fill="#C52463"/>
</g>
</g>
<defs>
<path id="path0_fill" d="M 38.1972 59.3408L 29.8704 59.3408L 29.8704 38.0141L 8.35976 38.0141L 8.35976 59.3408L 0 59.3408L 0 11.3476L 8.35976 11.3476L 8.35976 31.3227L 29.8704 31.3227L 29.8704 11.3476L 38.1972 11.3476L 38.1972 59.3408Z"/>
<path id="path1_fill" d="M 68.6954 59.3408C 68.343 58.6595 68.0346 57.5498 67.7702 56.0116C 65.2149 58.6705 62.0869 60 58.3862 60C 54.7955 60 51.8658 58.9782 49.5968 56.9345C 47.3279 54.8908 46.1935 52.3637 46.1935 49.3532C 46.1935 45.5515 47.6033 42.6398 50.4229 40.6181C 53.2646 38.5745 57.3178 37.5526 62.5826 37.5526L 67.5059 37.5526L 67.5059 35.2123C 67.5059 33.3664 66.9882 31.8941 65.9529 30.7954C 64.9176 29.6746 63.3425 29.1143 61.2278 29.1143C 59.3995 29.1143 57.9015 29.5757 56.734 30.4987C 55.5665 31.3997 54.9828 32.5533 54.9828 33.9597L 46.9534 33.9597C 46.9534 32.004 47.6033 30.1801 48.9029 28.488C 50.2026 26.7739 51.9649 25.4335 54.1898 24.4666C 56.4366 23.4997 58.9369 23.0162 61.6904 23.0162C 65.8758 23.0162 69.2131 24.071 71.7023 26.1806C 74.1915 28.2682 75.4691 31.2129 75.5352 35.0145L 75.5352 51.1002C 75.5352 54.3085 75.9868 56.8686 76.89 58.7804L 76.89 59.3408L 68.6954 59.3408ZM 59.8731 53.5723C 61.4591 53.5723 62.946 53.1878 64.3338 52.4187C 65.7436 51.6495 66.801 50.6167 67.5059 49.3202L 67.5059 42.5959L 63.1773 42.5959C 60.2035 42.5959 57.9676 43.1123 56.4697 44.1451C 54.9718 45.1779 54.2228 46.6393 54.2228 48.5291C 54.2228 50.0673 54.7294 51.2979 55.7427 52.2209C 56.7781 53.1219 58.1549 53.5723 59.8731 53.5723Z"/>
<path id="path2_fill" d="M 98.632 53.6053C 100.637 53.6053 102.3 53.023 103.621 51.8583C 104.943 50.6936 105.648 49.2543 105.736 47.5402L 113.303 47.5402C 113.215 49.7597 112.521 51.8363 111.221 53.7701C 109.921 55.6819 108.159 57.1982 105.934 58.3189C 103.709 59.4396 101.308 60 98.7311 60C 93.7306 60 89.7655 58.3848 86.8358 55.1545C 83.906 51.9242 82.4411 47.4633 82.4411 41.7718L 82.4411 40.9478C 82.4411 35.52 83.895 31.1799 86.8027 27.9276C 89.7105 24.6534 93.6756 23.0162 98.698 23.0162C 102.95 23.0162 106.408 24.2578 109.073 26.741C 111.761 29.2022 113.171 32.4435 113.303 36.4649L 105.736 36.4649C 105.648 34.4212 104.943 32.7401 103.621 31.4216C 102.322 30.1031 100.659 29.4439 98.632 29.4439C 96.0326 29.4439 94.028 30.3888 92.6182 32.2787C 91.2084 34.1465 90.4925 36.9923 90.4705 40.8159L 90.4705 42.1014C 90.4705 45.969 91.1643 48.8587 92.5521 50.7705C 93.9619 52.6604 95.9886 53.6053 98.632 53.6053Z"/>
<path id="path3_fill" d="M 130.981 44.0462L 127.412 47.705L 127.412 59.3408L 119.383 59.3408L 119.383 8.71057L 127.412 8.71057L 127.412 37.9152L 129.923 34.7838L 139.803 23.6755L 149.451 23.6755L 136.168 38.5415L 150.872 59.3408L 141.587 59.3408L 130.981 44.0462Z"/>
<path id="path4_fill" d="M 163.263 59.3408L 155.234 59.3408L 155.234 23.6755L 163.263 23.6755L 163.263 59.3408ZM 154.738 14.4131C 154.738 13.1825 155.124 12.1606 155.895 11.3476C 156.688 10.5345 157.811 10.128 159.265 10.128C 160.719 10.128 161.842 10.5345 162.635 11.3476C 163.428 12.1606 163.825 13.1825 163.825 14.4131C 163.825 15.6217 163.428 16.6325 162.635 17.4456C 161.842 18.2367 160.719 18.6322 159.265 18.6322C 157.811 18.6322 156.688 18.2367 155.895 17.4456C 155.124 16.6325 154.738 15.6217 154.738 14.4131Z"/>
<path id="path5_fill" d="M 179.487 23.6755L 179.718 27.7958C 182.362 24.6094 185.831 23.0162 190.127 23.0162C 197.572 23.0162 201.361 27.2684 201.493 35.7727L 201.493 59.3408L 193.464 59.3408L 193.464 36.2341C 193.464 33.9707 192.968 32.3006 191.977 31.2239C 191.008 30.1251 189.411 29.5757 187.186 29.5757C 183.948 29.5757 181.536 31.0371 179.95 33.9597L 179.95 59.3408L 171.92 59.3408L 171.92 23.6755L 179.487 23.6755Z"/>
<path id="path6_fill" d="M 208.201 41.2444C 208.201 35.7507 209.479 31.3447 212.034 28.0265C 214.589 24.6863 218.015 23.0162 222.31 23.0162C 226.099 23.0162 229.161 24.3347 231.496 26.9717L 231.496 8.71057L 239.525 8.71057L 239.525 59.3408L 232.256 59.3408L 231.859 55.649C 229.458 58.5497 226.253 60 222.244 60C 218.059 60 214.666 58.3189 212.067 54.9568C 209.49 51.5946 208.201 47.0238 208.201 41.2444ZM 216.23 41.9366C 216.23 45.5625 216.924 48.3973 218.312 50.4409C 219.722 52.4626 221.715 53.4735 224.293 53.4735C 227.575 53.4735 229.976 52.0121 231.496 49.0895L 231.496 33.8609C 230.02 31.0041 227.641 29.5757 224.359 29.5757C 221.759 29.5757 219.755 30.6086 218.345 32.6742C 216.935 34.7179 216.23 37.8053 216.23 41.9366Z"/>
<path id="path7_fill" d="M 263.646 60C 258.558 60 254.427 58.4068 251.255 55.2205C 248.105 52.0121 246.53 47.749 246.53 42.4311L 246.53 41.4422C 246.53 37.8823 247.213 34.7069 248.579 31.9161C 249.967 29.1033 251.905 26.9168 254.394 25.3566C 256.884 23.7963 259.659 23.0162 262.721 23.0162C 267.589 23.0162 271.345 24.5655 273.989 27.6639C 276.654 30.7624 277.987 35.1464 277.987 40.8159L 277.987 44.0462L 254.626 44.0462C 254.868 46.9909 255.848 49.3202 257.567 51.0342C 259.307 52.7483 261.488 53.6053 264.109 53.6053C 267.788 53.6053 270.784 52.122 273.097 49.1554L 277.425 53.2757C 275.993 55.4072 274.077 57.0664 271.676 58.253C 269.297 59.4177 266.62 60 263.646 60ZM 262.688 29.4439C 260.485 29.4439 258.701 30.213 257.335 31.7513C 255.992 33.2895 255.132 35.4321 254.758 38.1789L 270.057 38.1789L 270.057 37.5856C 269.88 34.9047 269.164 32.883 267.909 31.5205C 266.653 30.1361 264.913 29.4439 262.688 29.4439Z"/>
<path id="path8_fill" d="M 302.967 30.9931C 301.91 30.8173 300.819 30.7294 299.696 30.7294C 296.017 30.7294 293.539 32.1358 292.261 34.9486L 292.261 59.3408L 284.232 59.3408L 284.232 23.6755L 291.898 23.6755L 292.096 27.6639C 294.034 24.5655 296.722 23.0162 300.158 23.0162C 301.304 23.0162 302.251 23.1701 303 23.4777L 302.967 30.9931Z"/>
<path id="path9_fill" d="M 165.197 4.14016C 162.62 4.88447 162.148 6.99535 162.314 8.33628C 160.476 6.14681 160.551 3.62808 160.551 0C 154.655 2.25259 156.026 8.74597 155.85 10.7181C 154.367 9.48787 154.086 6.54992 154.086 6.54992C 152.521 7.36628 151.736 9.54563 151.736 11.3135C 151.736 15.5889 155.156 19.0544 159.376 19.0544C 163.596 19.0544 167.016 15.5889 167.016 11.3135C 167.016 8.77276 165.175 7.6009 165.197 4.14016Z"/>
</defs>
</svg>
