<svg width="564" height="172" viewBox="0 0 564 172" version="1.1" xmlns="http://www.w3.org/2000/svg" xmlns:xlink="http://www.w3.org/1999/xlink">
  <title>Vector</title>
  <desc>Created using Figma</desc>
  <g id="Canvas" transform="translate(68 -1554)">
    <g id="Vector">
      <use xlink:href="#path0_fill" transform="translate(-67.498 1554)" fill="#FFFFFF"/>
      <use xlink:href="#path1_fill" transform="translate(-67.498 1554)" fill="#FFFFFF"/>
      <use xlink:href="#path2_fill" transform="translate(-67.498 1554)" fill="#FFFFFF"/>
      <use xlink:href="#path3_fill" transform="translate(-67.498 1554)" fill="#FFFFFF"/>
      <use xlink:href="#path4_fill" transform="translate(-67.498 1554)" fill="#FFFFFF"/>
      <use xlink:href="#path5_fill" transform="translate(-67.498 1554)" fill="#FFFFFF"/>
      <use xlink:href="#path6_fill" transform="translate(-67.498 1554)" fill="#FFFFFF"/>
      <use xlink:href="#path7_fill" transform="translate(-67.498 1554)" fill="#FFFFFF"/>
      <use xlink:href="#path8_fill" transform="translate(-67.498 1554)" fill="#FFFFFF"/>
      <use xlink:href="#path9_fill" transform="translate(-67.498 1554)" fill="#FFFFFF"/>
      <use xlink:href="#path10_fill" transform="translate(-67.498 1554)" fill="#FFFFFF"/>
      <use xlink:href="#path11_fill" transform="translate(-67.498 1554)" fill="#FFFFFF"/>
      <use xlink:href="#path12_fill" transform="translate(-67.498 1554)" fill="#FFFFFF"/>
      <use xlink:href="#path13_fill" transform="translate(-67.498 1554)" fill="#FFFFFF"/>
      <use xlink:href="#path14_fill" transform="translate(-67.498 1554)" fill="#FFFFFF"/>
      <use xlink:href="#path15_fill" transform="translate(-67.498 1554)" fill="#FFFFFF"/>
      <use xlink:href="#path16_fill" transform="translate(-67.498 1554)" fill="#FFFFFF"/>
      <use xlink:href="#path17_fill" transform="translate(-67.498 1554)" fill="#FFFFFF"/>
      <use xlink:href="#path18_fill" transform="translate(-67.498 1554)" fill="#FFFFFF"/>
      <use xlink:href="#path19_fill" transform="translate(-67.498 1554)" fill="#FFFFFF"/>
      <use xlink:href="#path20_fill" transform="translate(-67.498 1554)" fill="#FFFFFF"/>
      <use xlink:href="#path21_fill" transform="translate(-67.498 1554)" fill="#FFFFFF"/>
      <use xlink:href="#path22_fill" transform="translate(-67.498 1554)" fill="#FFFFFF"/>
      <use xlink:href="#path23_fill" transform="translate(-67.498 1554)" fill="#FFFFFF"/>
      <use xlink:href="#path24_fill" transform="translate(-67.498 1554)" fill="#FFFFFF"/>
      <use xlink:href="#path25_fill" transform="translate(-67.498 1554)" fill="#FFFFFF"/>
      <use xlink:href="#path26_fill" transform="translate(-67.498 1554)" fill="#FFFFFF"/>
      <use xlink:href="#path27_fill" transform="translate(-67.498 1554)" fill="#FFFFFF"/>
      <use xlink:href="#path28_fill" transform="translate(-67.498 1554)" fill="#FFFFFF"/>
      <use xlink:href="#path29_fill" transform="translate(-67.498 1554)" fill="#FFFFFF"/>
      <use xlink:href="#path30_fill" transform="translate(-67.498 1554)" fill="#FFFFFF"/>
      <use xlink:href="#path31_fill" transform="translate(-67.498 1554)" fill="#FFFFFF"/>
      <use xlink:href="#path32_fill" transform="translate(-67.498 1554)" fill="#FFFFFF"/>
    </g>
  </g>
  <defs>
    <path id="path0_fill" d="M 70.4512 109L 55.1934 109L 55.1934 69.8262L 15.7773 69.8262L 15.7773 109L 0.458984 109L 0.458984 20.8438L 15.7773 20.8438L 15.7773 57.5352L 55.1934 57.5352L 55.1934 20.8438L 70.4512 20.8438L 70.4512 109Z"/>
    <path id="path1_fill" d="M 126.336 109C 125.69 107.749 125.125 105.71 124.641 102.885C 119.958 107.769 114.227 110.211 107.445 110.211C 100.866 110.211 95.4974 108.334 91.3398 104.58C 87.1823 100.826 85.1035 96.1842 85.1035 90.6543C 85.1035 83.6712 87.6869 78.3229 92.8535 74.6094C 98.0605 70.8555 105.488 68.9785 115.135 68.9785L 124.156 68.9785L 124.156 64.6797C 124.156 61.2891 123.208 58.5846 121.311 56.5664C 119.413 54.5078 116.527 53.4785 112.652 53.4785C 109.302 53.4785 106.557 54.3262 104.418 56.0215C 102.279 57.6764 101.209 59.7956 101.209 62.3789L 86.4961 62.3789C 86.4961 58.7865 87.6869 55.4362 90.0684 52.3281C 92.4499 49.1797 95.679 46.7174 99.7559 44.9414C 103.873 43.1654 108.454 42.2773 113.5 42.2773C 121.169 42.2773 127.285 44.2148 131.846 48.0898C 136.407 51.9245 138.748 57.3333 138.869 64.3164L 138.869 93.8633C 138.869 99.7565 139.697 104.459 141.352 107.971L 141.352 109L 126.336 109ZM 110.17 98.4043C 113.076 98.4043 115.801 97.6979 118.344 96.2852C 120.927 94.8724 122.865 92.9753 124.156 90.5938L 124.156 78.2422L 116.225 78.2422C 110.775 78.2422 106.678 79.1908 103.934 81.0879C 101.189 82.985 99.8164 85.6693 99.8164 89.1406C 99.8164 91.9661 100.745 94.2266 102.602 95.9219C 104.499 97.5768 107.021 98.4043 110.17 98.4043Z"/>
    <path id="path2_fill" d="M 181.191 98.4648C 184.865 98.4648 187.912 97.3952 190.334 95.2559C 192.756 93.1165 194.048 90.4727 194.209 87.3242L 208.074 87.3242C 207.913 91.401 206.641 95.2155 204.26 98.7676C 201.878 102.279 198.649 105.064 194.572 107.123C 190.495 109.182 186.096 110.211 181.373 110.211C 172.21 110.211 164.945 107.244 159.576 101.311C 154.208 95.377 151.523 87.1829 151.523 76.7285L 151.523 75.2148C 151.523 65.2448 154.188 57.2728 159.516 51.2988C 164.844 45.2845 172.109 42.2773 181.312 42.2773C 189.103 42.2773 195.44 44.5579 200.324 49.1191C 205.249 53.64 207.832 59.5938 208.074 66.9805L 194.209 66.9805C 194.048 63.2266 192.756 60.1387 190.334 57.7168C 187.952 55.2949 184.905 54.084 181.191 54.084C 176.428 54.084 172.755 55.8197 170.172 59.291C 167.589 62.722 166.277 67.9492 166.236 74.9727L 166.236 77.334C 166.236 84.4381 167.508 89.7461 170.051 93.2578C 172.634 96.7292 176.348 98.4648 181.191 98.4648Z"/>
    <path id="path3_fill" d="M 240.467 80.9062L 233.928 87.627L 233.928 109L 219.215 109L 219.215 16L 233.928 16L 233.928 69.6445L 238.529 63.8926L 256.633 43.4883L 274.312 43.4883L 249.973 70.7949L 276.916 109L 259.902 109L 240.467 80.9062Z"/>
    <path id="path4_fill" d="M 299.621 109L 284.908 109L 284.908 43.4883L 299.621 43.4883L 299.621 109ZM 284 26.4746C 284 24.2142 284.706 22.3372 286.119 20.8438C 287.572 19.3503 289.631 18.6035 292.295 18.6035C 294.959 18.6035 297.018 19.3503 298.471 20.8438C 299.924 22.3372 300.65 24.2142 300.65 26.4746C 300.65 28.6947 299.924 30.5514 298.471 32.0449C 297.018 33.498 294.959 34.2246 292.295 34.2246C 289.631 34.2246 287.572 33.498 286.119 32.0449C 284.706 30.5514 284 28.6947 284 26.4746Z"/>
    <path id="path5_fill" d="M 329.35 43.4883L 329.773 51.0566C 334.617 45.2038 340.975 42.2773 348.846 42.2773C 362.489 42.2773 369.432 50.0879 369.674 65.709L 369.674 109L 354.961 109L 354.961 66.5566C 354.961 62.3991 354.053 59.3314 352.236 57.3535C 350.46 55.3353 347.534 54.3262 343.457 54.3262C 337.523 54.3262 333.104 57.0104 330.197 62.3789L 330.197 109L 315.484 109L 315.484 43.4883L 329.35 43.4883Z"/>
    <path id="path6_fill" d="M 381.965 75.7598C 381.965 65.6686 384.306 57.5755 388.988 51.4805C 393.671 45.3451 399.947 42.2773 407.818 42.2773C 414.761 42.2773 420.372 44.6992 424.65 49.543L 424.65 16L 439.363 16L 439.363 109L 426.043 109L 425.316 102.219C 420.917 107.547 415.044 110.211 407.697 110.211C 400.028 110.211 393.812 107.123 389.049 100.947C 384.326 94.7715 381.965 86.3756 381.965 75.7598ZM 396.678 77.0312C 396.678 83.6914 397.949 88.8984 400.492 92.6523C 403.076 96.3659 406.729 98.2227 411.451 98.2227C 417.465 98.2227 421.865 95.5384 424.65 90.1699L 424.65 62.1973C 421.946 56.9499 417.587 54.3262 411.572 54.3262C 406.809 54.3262 403.136 56.2233 400.553 60.0176C 397.969 63.7715 396.678 69.4427 396.678 77.0312Z"/>
    <path id="path7_fill" d="M 483.562 110.211C 474.238 110.211 466.67 107.285 460.857 101.432C 455.085 95.5384 452.199 87.7077 452.199 77.9395L 452.199 76.123C 452.199 69.584 453.451 63.7513 455.953 58.625C 458.496 53.4583 462.048 49.4421 466.609 46.5762C 471.171 43.7103 476.257 42.2773 481.867 42.2773C 490.788 42.2773 497.67 45.123 502.514 50.8145C 507.398 56.5059 509.84 64.5586 509.84 74.9727L 509.84 80.9062L 467.033 80.9062C 467.477 86.3151 469.273 90.5938 472.422 93.7422C 475.611 96.8906 479.607 98.4648 484.41 98.4648C 491.151 98.4648 496.641 95.7402 500.879 90.291L 508.811 97.8594C 506.187 101.775 502.675 104.822 498.275 107.002C 493.916 109.141 489.012 110.211 483.562 110.211ZM 481.807 54.084C 477.77 54.084 474.501 55.4967 471.998 58.3223C 469.536 61.1478 467.962 65.0833 467.275 70.1289L 495.309 70.1289L 495.309 69.0391C 494.986 64.1146 493.674 60.401 491.373 57.8984C 489.072 55.3555 485.883 54.084 481.807 54.084Z"/>
    <path id="path8_fill" d="M 555.613 56.9297C 553.676 56.6068 551.678 56.4453 549.619 56.4453C 542.878 56.4453 538.337 59.0286 535.996 64.1953L 535.996 109L 521.283 109L 521.283 43.4883L 535.33 43.4883L 535.693 50.8145C 539.245 45.123 544.17 42.2773 550.467 42.2773C 552.566 42.2773 554.301 42.5599 555.674 43.125L 555.613 56.9297Z"/>
    <path id="path9_fill" d="M 303.165 7.60486C 298.443 8.97204 297.578 12.8494 297.883 15.3125C 294.514 11.2908 294.652 6.66423 294.652 0C 283.847 4.13766 286.36 16.065 286.036 19.6875C 283.319 17.4278 282.806 12.0312 282.806 12.0312C 279.937 13.5307 278.498 17.5339 278.498 20.7812C 278.498 28.6344 284.766 35 292.498 35C 300.23 35 306.498 28.6344 306.498 20.7812C 306.498 16.1142 303.124 13.9617 303.165 7.60486Z"/>
    <path id="path10_fill" d="M 22.1279 165L 19.585 165L 19.585 150.686L 2.52246 150.686L 2.52246 165L 0 165L 0 135.141L 2.52246 135.141L 2.52246 148.553L 19.585 148.553L 19.585 135.141L 22.1279 135.141L 22.1279 165Z"/>
    <path id="path11_fill" d="M 43.1689 165C 42.9229 164.303 42.7656 163.271 42.6973 161.903C 41.8359 163.024 40.7354 163.893 39.3955 164.508C 38.0693 165.109 36.6611 165.41 35.1709 165.41C 33.0381 165.41 31.3086 164.815 29.9824 163.626C 28.6699 162.437 28.0137 160.933 28.0137 159.114C 28.0137 156.954 28.9092 155.245 30.7002 153.987C 32.5049 152.729 35.0137 152.101 38.2266 152.101L 42.6768 152.101L 42.6768 149.578C 42.6768 147.992 42.1846 146.748 41.2002 145.846C 40.2295 144.93 38.8076 144.472 36.9346 144.472C 35.2256 144.472 33.8105 144.909 32.6895 145.784C 31.5684 146.659 31.0078 147.712 31.0078 148.942L 28.5469 148.922C 28.5469 147.158 29.3672 145.634 31.0078 144.349C 32.6484 143.05 34.665 142.4 37.0576 142.4C 39.5322 142.4 41.4805 143.022 42.9023 144.267C 44.3379 145.497 45.0762 147.22 45.1172 149.435L 45.1172 159.935C 45.1172 162.081 45.3428 163.688 45.7939 164.754L 45.7939 165L 43.1689 165ZM 35.458 163.236C 37.0986 163.236 38.5615 162.84 39.8467 162.047C 41.1455 161.254 42.0889 160.194 42.6768 158.868L 42.6768 153.987L 38.2881 153.987C 35.8408 154.015 33.9268 154.466 32.5459 155.341C 31.165 156.202 30.4746 157.392 30.4746 158.909C 30.4746 160.153 30.9326 161.186 31.8486 162.006C 32.7783 162.826 33.9814 163.236 35.458 163.236Z"/>
    <path id="path12_fill" d="M 66.2607 142.811L 68.7217 142.811L 68.7217 165L 66.2607 165L 66.2607 146.769L 54.2842 165L 51.8438 165L 51.8438 142.811L 54.2842 142.811L 54.2842 161.062L 66.2607 142.811ZM 66.1377 134.812C 66.1377 136.385 65.5977 137.656 64.5176 138.627C 63.4512 139.598 62.0156 140.083 60.2109 140.083C 58.4336 140.083 56.998 139.604 55.9043 138.647C 54.8242 137.677 54.2842 136.398 54.2842 134.812L 56.376 134.812C 56.376 135.947 56.7109 136.815 57.3809 137.417C 58.0645 138.019 59.0078 138.319 60.2109 138.319C 61.4141 138.319 62.3506 138.005 63.0205 137.376C 63.7041 136.747 64.0459 135.893 64.0459 134.812L 66.1377 134.812Z"/>
    <path id="path13_fill" d="M 74.792 162.929L 75.8789 161.514C 77.6016 159.176 78.5928 155.758 78.8525 151.26L 79.2422 142.811L 92.3467 142.811L 92.3467 162.929L 94.6436 162.929L 94.6436 171.521L 92.2031 171.521L 92.2031 165L 75.5303 165L 75.5303 171.521L 73.1719 171.521L 73.1924 162.929L 74.792 162.929ZM 77.6221 162.929L 89.8857 162.929L 89.8857 145.107L 81.5801 145.107L 81.3135 150.87C 81.0674 156.161 79.8369 160.181 77.6221 162.929Z"/>
    <path id="path14_fill" d="M 113.962 142.811L 116.423 142.811L 116.423 165L 113.962 165L 113.962 146.769L 101.985 165L 99.5449 165L 99.5449 142.811L 101.985 142.811L 101.985 161.062L 113.962 142.811Z"/>
    <path id="path15_fill" d="M 149.153 144.902L 141.073 144.902L 141.073 165L 138.612 165L 138.612 144.902L 130.84 144.902L 130.84 142.811L 149.153 142.811L 149.153 144.902Z"/>
    <path id="path16_fill" d="M 150.979 153.577C 150.979 151.444 151.389 149.523 152.209 147.814C 153.043 146.105 154.212 144.779 155.716 143.836C 157.233 142.879 158.949 142.4 160.863 142.4C 163.816 142.4 166.209 143.439 168.041 145.518C 169.873 147.582 170.789 150.323 170.789 153.741L 170.789 154.254C 170.789 156.4 170.372 158.335 169.538 160.058C 168.718 161.767 167.556 163.086 166.052 164.016C 164.548 164.945 162.832 165.41 160.904 165.41C 157.965 165.41 155.572 164.378 153.727 162.313C 151.895 160.235 150.979 157.487 150.979 154.069L 150.979 153.577ZM 153.439 154.254C 153.439 156.906 154.123 159.087 155.49 160.796C 156.871 162.491 158.676 163.339 160.904 163.339C 163.119 163.339 164.91 162.491 166.277 160.796C 167.658 159.087 168.349 156.838 168.349 154.049L 168.349 153.577C 168.349 151.882 168.034 150.33 167.405 148.922C 166.776 147.514 165.895 146.427 164.76 145.661C 163.625 144.882 162.326 144.492 160.863 144.492C 158.676 144.492 156.892 145.354 155.511 147.076C 154.13 148.785 153.439 151.027 153.439 153.803L 153.439 154.254Z"/>
    <path id="path17_fill" d="M 189.697 144.923L 178.479 144.923L 178.479 165L 176.019 165L 176.019 142.811L 189.697 142.811L 189.697 144.923Z"/>
    <path id="path18_fill" d="M 191.83 153.577C 191.83 151.444 192.24 149.523 193.061 147.814C 193.895 146.105 195.063 144.779 196.567 143.836C 198.085 142.879 199.801 142.4 201.715 142.4C 204.668 142.4 207.061 143.439 208.893 145.518C 210.725 147.582 211.641 150.323 211.641 153.741L 211.641 154.254C 211.641 156.4 211.224 158.335 210.39 160.058C 209.569 161.767 208.407 163.086 206.903 164.016C 205.399 164.945 203.684 165.41 201.756 165.41C 198.816 165.41 196.424 164.378 194.578 162.313C 192.746 160.235 191.83 157.487 191.83 154.069L 191.83 153.577ZM 194.291 154.254C 194.291 156.906 194.975 159.087 196.342 160.796C 197.723 162.491 199.527 163.339 201.756 163.339C 203.971 163.339 205.762 162.491 207.129 160.796C 208.51 159.087 209.2 156.838 209.2 154.049L 209.2 153.577C 209.2 151.882 208.886 150.33 208.257 148.922C 207.628 147.514 206.746 146.427 205.611 145.661C 204.477 144.882 203.178 144.492 201.715 144.492C 199.527 144.492 197.743 145.354 196.362 147.076C 194.981 148.785 194.291 151.027 194.291 153.803L 194.291 154.254Z"/>
    <path id="path19_fill" d="M 235.143 163.339C 236.852 163.339 238.28 162.86 239.429 161.903C 240.591 160.933 241.22 159.682 241.315 158.15L 243.674 158.15C 243.605 159.504 243.182 160.741 242.402 161.862C 241.623 162.97 240.584 163.838 239.285 164.467C 238 165.096 236.619 165.41 235.143 165.41C 232.23 165.41 229.92 164.398 228.211 162.375C 226.516 160.352 225.668 157.631 225.668 154.213L 225.668 153.475C 225.668 151.287 226.051 149.353 226.816 147.671C 227.582 145.989 228.676 144.69 230.098 143.774C 231.533 142.858 233.208 142.4 235.122 142.4C 237.556 142.4 239.559 143.125 241.131 144.574C 242.717 146.023 243.564 147.931 243.674 150.296L 241.315 150.296C 241.206 148.56 240.577 147.158 239.429 146.092C 238.294 145.025 236.858 144.492 235.122 144.492C 232.907 144.492 231.185 145.292 229.954 146.892C 228.737 148.491 228.129 150.733 228.129 153.618L 228.129 154.336C 228.129 157.166 228.737 159.374 229.954 160.96C 231.185 162.546 232.914 163.339 235.143 163.339Z"/>
    <path id="path20_fill" d="M 262.603 165C 262.356 164.303 262.199 163.271 262.131 161.903C 261.27 163.024 260.169 163.893 258.829 164.508C 257.503 165.109 256.095 165.41 254.604 165.41C 252.472 165.41 250.742 164.815 249.416 163.626C 248.104 162.437 247.447 160.933 247.447 159.114C 247.447 156.954 248.343 155.245 250.134 153.987C 251.938 152.729 254.447 152.101 257.66 152.101L 262.11 152.101L 262.11 149.578C 262.11 147.992 261.618 146.748 260.634 145.846C 259.663 144.93 258.241 144.472 256.368 144.472C 254.659 144.472 253.244 144.909 252.123 145.784C 251.002 146.659 250.441 147.712 250.441 148.942L 247.98 148.922C 247.98 147.158 248.801 145.634 250.441 144.349C 252.082 143.05 254.099 142.4 256.491 142.4C 258.966 142.4 260.914 143.022 262.336 144.267C 263.771 145.497 264.51 147.22 264.551 149.435L 264.551 159.935C 264.551 162.081 264.776 163.688 265.228 164.754L 265.228 165L 262.603 165ZM 254.892 163.236C 256.532 163.236 257.995 162.84 259.28 162.047C 260.579 161.254 261.522 160.194 262.11 158.868L 262.11 153.987L 257.722 153.987C 255.274 154.015 253.36 154.466 251.979 155.341C 250.599 156.202 249.908 157.392 249.908 158.909C 249.908 160.153 250.366 161.186 251.282 162.006C 252.212 162.826 253.415 163.236 254.892 163.236Z"/>
    <path id="path21_fill" d="M 283.397 161.678L 292.216 142.811L 295.251 142.811L 295.251 165L 292.79 165L 292.79 146.789L 284.259 165L 282.516 165L 273.82 146.379L 273.82 165L 271.38 165L 271.38 142.811L 274.6 142.811L 283.397 161.678Z"/>
    <path id="path22_fill" d="M 300.48 153.577C 300.48 151.444 300.891 149.523 301.711 147.814C 302.545 146.105 303.714 144.779 305.218 143.836C 306.735 142.879 308.451 142.4 310.365 142.4C 313.318 142.4 315.711 143.439 317.543 145.518C 319.375 147.582 320.291 150.323 320.291 153.741L 320.291 154.254C 320.291 156.4 319.874 158.335 319.04 160.058C 318.22 161.767 317.058 163.086 315.554 164.016C 314.05 164.945 312.334 165.41 310.406 165.41C 307.467 165.41 305.074 164.378 303.229 162.313C 301.396 160.235 300.48 157.487 300.48 154.069L 300.48 153.577ZM 302.941 154.254C 302.941 156.906 303.625 159.087 304.992 160.796C 306.373 162.491 308.178 163.339 310.406 163.339C 312.621 163.339 314.412 162.491 315.779 160.796C 317.16 159.087 317.851 156.838 317.851 154.049L 317.851 153.577C 317.851 151.882 317.536 150.33 316.907 148.922C 316.278 147.514 315.396 146.427 314.262 145.661C 313.127 144.882 311.828 144.492 310.365 144.492C 308.178 144.492 306.394 145.354 305.013 147.076C 303.632 148.785 302.941 151.027 302.941 153.803L 302.941 154.254Z"/>
    <path id="path23_fill" d="M 339.199 144.923L 327.981 144.923L 327.981 165L 325.521 165L 325.521 142.811L 339.199 142.811L 339.199 144.923Z"/>
    <path id="path24_fill" d="M 341.332 153.577C 341.332 151.444 341.742 149.523 342.562 147.814C 343.396 146.105 344.565 144.779 346.069 143.836C 347.587 142.879 349.303 142.4 351.217 142.4C 354.17 142.4 356.562 143.439 358.395 145.518C 360.227 147.582 361.143 150.323 361.143 153.741L 361.143 154.254C 361.143 156.4 360.726 158.335 359.892 160.058C 359.071 161.767 357.909 163.086 356.405 164.016C 354.901 164.945 353.186 165.41 351.258 165.41C 348.318 165.41 345.926 164.378 344.08 162.313C 342.248 160.235 341.332 157.487 341.332 154.069L 341.332 153.577ZM 343.793 154.254C 343.793 156.906 344.477 159.087 345.844 160.796C 347.225 162.491 349.029 163.339 351.258 163.339C 353.473 163.339 355.264 162.491 356.631 160.796C 358.012 159.087 358.702 156.838 358.702 154.049L 358.702 153.577C 358.702 151.882 358.388 150.33 357.759 148.922C 357.13 147.514 356.248 146.427 355.113 145.661C 353.979 144.882 352.68 144.492 351.217 144.492C 349.029 144.492 347.245 145.354 345.864 147.076C 344.483 148.785 343.793 151.027 343.793 153.803L 343.793 154.254Z"/>
    <path id="path25_fill" d="M 392.376 144.902L 384.296 144.902L 384.296 165L 381.835 165L 381.835 144.902L 374.062 144.902L 374.062 142.811L 392.376 142.811L 392.376 144.902Z"/>
    <path id="path26_fill" d="M 410.997 142.811L 413.458 142.811L 413.458 165L 410.997 165L 410.997 146.769L 399.021 165L 396.58 165L 396.58 142.811L 399.021 142.811L 399.021 161.062L 410.997 142.811Z"/>
    <path id="path27_fill" d="M 432.325 161.678L 441.144 142.811L 444.179 142.811L 444.179 165L 441.718 165L 441.718 146.789L 433.187 165L 431.443 165L 422.748 146.379L 422.748 165L 420.308 165L 420.308 142.811L 423.527 142.811L 432.325 161.678Z"/>
    <path id="path28_fill" d="M 463.046 161.678L 471.864 142.811L 474.899 142.811L 474.899 165L 472.438 165L 472.438 146.789L 463.907 165L 462.164 165L 453.469 146.379L 453.469 165L 451.028 165L 451.028 142.811L 454.248 142.811L 463.046 161.678Z"/>
    <path id="path29_fill" d="M 490.075 165.41C 488.188 165.41 486.479 164.945 484.948 164.016C 483.431 163.086 482.248 161.794 481.4 160.14C 480.553 158.472 480.129 156.605 480.129 154.541L 480.129 153.659C 480.129 151.526 480.539 149.605 481.359 147.896C 482.193 146.188 483.349 144.848 484.825 143.877C 486.302 142.893 487.901 142.4 489.624 142.4C 492.317 142.4 494.45 143.323 496.022 145.169C 497.608 147.001 498.401 149.51 498.401 152.695L 498.401 154.069L 482.569 154.069L 482.569 154.541C 482.569 157.057 483.287 159.155 484.723 160.837C 486.172 162.505 487.99 163.339 490.178 163.339C 491.49 163.339 492.646 163.1 493.644 162.621C 494.655 162.143 495.571 161.377 496.392 160.324L 497.93 161.493C 496.125 164.104 493.507 165.41 490.075 165.41ZM 489.624 144.492C 487.778 144.492 486.22 145.169 484.948 146.522C 483.69 147.876 482.925 149.694 482.651 151.978L 495.961 151.978L 495.961 151.711C 495.893 149.578 495.284 147.842 494.136 146.502C 492.987 145.162 491.483 144.492 489.624 144.492Z"/>
    <path id="path30_fill" d="M 517.761 142.811L 520.222 142.811L 520.222 165L 517.761 165L 517.761 146.769L 505.784 165L 503.344 165L 503.344 142.811L 505.784 142.811L 505.784 161.062L 517.761 142.811ZM 517.638 134.812C 517.638 136.385 517.098 137.656 516.018 138.627C 514.951 139.598 513.516 140.083 511.711 140.083C 509.934 140.083 508.498 139.604 507.404 138.647C 506.324 137.677 505.784 136.398 505.784 134.812L 507.876 134.812C 507.876 135.947 508.211 136.815 508.881 137.417C 509.564 138.019 510.508 138.319 511.711 138.319C 512.914 138.319 513.851 138.005 514.521 137.376C 515.204 136.747 515.546 135.893 515.546 134.812L 517.638 134.812Z"/>
    <path id="path31_fill" d="M 542.739 144.902L 534.659 144.902L 534.659 165L 532.198 165L 532.198 144.902L 524.426 144.902L 524.426 142.811L 542.739 142.811L 542.739 144.902Z"/>
    <path id="path32_fill" d="M 560.458 165C 560.212 164.303 560.055 163.271 559.986 161.903C 559.125 163.024 558.024 163.893 556.685 164.508C 555.358 165.109 553.95 165.41 552.46 165.41C 550.327 165.41 548.598 164.815 547.271 163.626C 545.959 162.437 545.303 160.933 545.303 159.114C 545.303 156.954 546.198 155.245 547.989 153.987C 549.794 152.729 552.303 152.101 555.516 152.101L 559.966 152.101L 559.966 149.578C 559.966 147.992 559.474 146.748 558.489 145.846C 557.519 144.93 556.097 144.472 554.224 144.472C 552.515 144.472 551.1 144.909 549.979 145.784C 548.857 146.659 548.297 147.712 548.297 148.942L 545.836 148.922C 545.836 147.158 546.656 145.634 548.297 144.349C 549.938 143.05 551.954 142.4 554.347 142.4C 556.821 142.4 558.77 143.022 560.191 144.267C 561.627 145.497 562.365 147.22 562.406 149.435L 562.406 159.935C 562.406 162.081 562.632 163.688 563.083 164.754L 563.083 165L 560.458 165ZM 552.747 163.236C 554.388 163.236 555.851 162.84 557.136 162.047C 558.435 161.254 559.378 160.194 559.966 158.868L 559.966 153.987L 555.577 153.987C 553.13 154.015 551.216 154.466 549.835 155.341C 548.454 156.202 547.764 157.392 547.764 158.909C 547.764 160.153 548.222 161.186 549.138 162.006C 550.067 162.826 551.271 163.236 552.747 163.236Z"/>
  </defs>
</svg>
