<svg width="557" height="111" viewBox="0 0 557 111" version="1.1" xmlns="http://www.w3.org/2000/svg" xmlns:xlink="http://www.w3.org/1999/xlink">
<title>Vector</title>
<desc>Created using Figma</desc>
<g id="Canvas" transform="translate(68 -1554)">
<g id="Vector">
<use xlink:href="#path0_fill" transform="translate(-67.0391 1554)" fill="#FFFFFF"/>
<use xlink:href="#path1_fill" transform="translate(-67.0391 1554)" fill="#FFFFFF"/>
<use xlink:href="#path2_fill" transform="translate(-67.0391 1554)" fill="#FFFFFF"/>
<use xlink:href="#path3_fill" transform="translate(-67.0391 1554)" fill="#FFFFFF"/>
<use xlink:href="#path4_fill" transform="translate(-67.0391 1554)" fill="#FFFFFF"/>
<use xlink:href="#path5_fill" transform="translate(-67.0391 1554)" fill="#FFFFFF"/>
<use xlink:href="#path6_fill" transform="translate(-67.0391 1554)" fill="#FFFFFF"/>
<use xlink:href="#path7_fill" transform="translate(-67.0391 1554)" fill="#FFFFFF"/>
<use xlink:href="#path8_fill" transform="translate(-67.0391 1554)" fill="#FFFFFF"/>
<use xlink:href="#path9_fill" transform="translate(-67.0391 1554)" fill="#FFFFFF"/>
</g>
</g>
<defs>
<path id="path0_fill" d="M 69.9922 109L 54.7344 109L 54.7344 69.8262L 15.3184 69.8262L 15.3184 109L 0 109L 0 20.8438L 15.3184 20.8438L 15.3184 57.5352L 54.7344 57.5352L 54.7344 20.8438L 69.9922 20.8438L 69.9922 109Z"/>
<path id="path1_fill" d="M 125.877 109C 125.231 107.749 124.666 105.71 124.182 102.885C 119.499 107.769 113.768 110.211 106.986 110.211C 100.407 110.211 95.0384 108.334 90.8809 104.58C 86.7233 100.826 84.6445 96.1842 84.6445 90.6543C 84.6445 83.6712 87.2279 78.3229 92.3945 74.6094C 97.6016 70.8555 105.029 68.9785 114.676 68.9785L 123.697 68.9785L 123.697 64.6797C 123.697 61.2891 122.749 58.5846 120.852 56.5664C 118.954 54.5078 116.068 53.4785 112.193 53.4785C 108.843 53.4785 106.098 54.3262 103.959 56.0215C 101.82 57.6764 100.75 59.7956 100.75 62.3789L 86.0371 62.3789C 86.0371 58.7865 87.2279 55.4362 89.6094 52.3281C 91.9909 49.1797 95.2201 46.7174 99.2969 44.9414C 103.414 43.1654 107.995 42.2773 113.041 42.2773C 120.71 42.2773 126.826 44.2148 131.387 48.0898C 135.948 51.9245 138.289 57.3333 138.41 64.3164L 138.41 93.8633C 138.41 99.7565 139.238 104.459 140.893 107.971L 140.893 109L 125.877 109ZM 109.711 98.4043C 112.617 98.4043 115.342 97.6979 117.885 96.2852C 120.468 94.8724 122.406 92.9753 123.697 90.5938L 123.697 78.2422L 115.766 78.2422C 110.316 78.2422 106.219 79.1908 103.475 81.0879C 100.73 82.985 99.3574 85.6693 99.3574 89.1406C 99.3574 91.9661 100.286 94.2266 102.143 95.9219C 104.04 97.5768 106.562 98.4043 109.711 98.4043Z"/>
<path id="path2_fill" d="M 180.732 98.4648C 184.406 98.4648 187.453 97.3952 189.875 95.2559C 192.297 93.1165 193.589 90.4727 193.75 87.3242L 207.615 87.3242C 207.454 91.401 206.182 95.2155 203.801 98.7676C 201.419 102.279 198.19 105.064 194.113 107.123C 190.036 109.182 185.637 110.211 180.914 110.211C 171.751 110.211 164.486 107.244 159.117 101.311C 153.749 95.377 151.064 87.1829 151.064 76.7285L 151.064 75.2148C 151.064 65.2448 153.729 57.2728 159.057 51.2988C 164.385 45.2845 171.65 42.2773 180.854 42.2773C 188.644 42.2773 194.981 44.5579 199.865 49.1191C 204.79 53.64 207.373 59.5938 207.615 66.9805L 193.75 66.9805C 193.589 63.2266 192.297 60.1387 189.875 57.7168C 187.493 55.2949 184.446 54.084 180.732 54.084C 175.969 54.084 172.296 55.8197 169.713 59.291C 167.13 62.722 165.818 67.9492 165.777 74.9727L 165.777 77.334C 165.777 84.4381 167.049 89.7461 169.592 93.2578C 172.175 96.7292 175.889 98.4648 180.732 98.4648Z"/>
<path id="path3_fill" d="M 240.008 80.9062L 233.469 87.627L 233.469 109L 218.756 109L 218.756 16L 233.469 16L 233.469 69.6445L 238.07 63.8926L 256.174 43.4883L 273.854 43.4883L 249.514 70.7949L 276.457 109L 259.443 109L 240.008 80.9062Z"/>
<path id="path4_fill" d="M 299.162 109L 284.449 109L 284.449 43.4883L 299.162 43.4883L 299.162 109ZM 283.541 26.4746C 283.541 24.2142 284.247 22.3372 285.66 20.8438C 287.113 19.3503 289.172 18.6035 291.836 18.6035C 294.5 18.6035 296.559 19.3503 298.012 20.8438C 299.465 22.3372 300.191 24.2142 300.191 26.4746C 300.191 28.6947 299.465 30.5514 298.012 32.0449C 296.559 33.498 294.5 34.2246 291.836 34.2246C 289.172 34.2246 287.113 33.498 285.66 32.0449C 284.247 30.5514 283.541 28.6947 283.541 26.4746Z"/>
<path id="path5_fill" d="M 328.891 43.4883L 329.314 51.0566C 334.158 45.2038 340.516 42.2773 348.387 42.2773C 362.03 42.2773 368.973 50.0879 369.215 65.709L 369.215 109L 354.502 109L 354.502 66.5566C 354.502 62.3991 353.594 59.3314 351.777 57.3535C 350.001 55.3353 347.075 54.3262 342.998 54.3262C 337.064 54.3262 332.645 57.0104 329.738 62.3789L 329.738 109L 315.025 109L 315.025 43.4883L 328.891 43.4883Z"/>
<path id="path6_fill" d="M 381.506 75.7598C 381.506 65.6686 383.847 57.5755 388.529 51.4805C 393.212 45.3451 399.488 42.2773 407.359 42.2773C 414.302 42.2773 419.913 44.6992 424.191 49.543L 424.191 16L 438.904 16L 438.904 109L 425.584 109L 424.857 102.219C 420.458 107.547 414.585 110.211 407.238 110.211C 399.569 110.211 393.353 107.123 388.59 100.947C 383.867 94.7715 381.506 86.3756 381.506 75.7598ZM 396.219 77.0312C 396.219 83.6914 397.49 88.8984 400.033 92.6523C 402.617 96.3659 406.27 98.2227 410.992 98.2227C 417.007 98.2227 421.406 95.5384 424.191 90.1699L 424.191 62.1973C 421.487 56.9499 417.128 54.3262 411.113 54.3262C 406.35 54.3262 402.677 56.2233 400.094 60.0176C 397.51 63.7715 396.219 69.4427 396.219 77.0312Z"/>
<path id="path7_fill" d="M 483.104 110.211C 473.779 110.211 466.211 107.285 460.398 101.432C 454.626 95.5384 451.74 87.7077 451.74 77.9395L 451.74 76.123C 451.74 69.584 452.992 63.7513 455.494 58.625C 458.037 53.4583 461.589 49.4421 466.15 46.5762C 470.712 43.7103 475.798 42.2773 481.408 42.2773C 490.329 42.2773 497.211 45.123 502.055 50.8145C 506.939 56.5059 509.381 64.5586 509.381 74.9727L 509.381 80.9062L 466.574 80.9062C 467.018 86.3151 468.814 90.5938 471.963 93.7422C 475.152 96.8906 479.148 98.4648 483.951 98.4648C 490.692 98.4648 496.182 95.7402 500.42 90.291L 508.352 97.8594C 505.728 101.775 502.216 104.822 497.816 107.002C 493.457 109.141 488.553 110.211 483.104 110.211ZM 481.348 54.084C 477.311 54.084 474.042 55.4967 471.539 58.3223C 469.077 61.1478 467.503 65.0833 466.816 70.1289L 494.85 70.1289L 494.85 69.0391C 494.527 64.1146 493.215 60.401 490.914 57.8984C 488.613 55.3555 485.424 54.084 481.348 54.084Z"/>
<path id="path8_fill" d="M 555.154 56.9297C 553.217 56.6068 551.219 56.4453 549.16 56.4453C 542.419 56.4453 537.878 59.0286 535.537 64.1953L 535.537 109L 520.824 109L 520.824 43.4883L 534.871 43.4883L 535.234 50.8145C 538.786 45.123 543.711 42.2773 550.008 42.2773C 552.107 42.2773 553.842 42.5599 555.215 43.125L 555.154 56.9297Z"/>
<path id="path9_fill" d="M 302.706 7.60486C 297.984 8.97204 297.119 12.8494 297.424 15.3125C 294.055 11.2908 294.193 6.66423 294.193 0C 283.388 4.13766 285.901 16.065 285.578 19.6875C 282.86 17.4278 282.347 12.0312 282.347 12.0312C 279.478 13.5307 278.039 17.5339 278.039 20.7812C 278.039 28.6344 284.307 35 292.039 35C 299.771 35 306.039 28.6344 306.039 20.7812C 306.039 16.1142 302.665 13.9617 302.706 7.60486Z"/>
</defs>
</svg>
